<?xml version="1.0" encoding="utf-8"?>
<!-- Generator: Adobe Illustrator 27.2.0, SVG Export Plug-In . SVG Version: 6.00 Build 0)  -->
<svg version="1.1" id="Layer_1" xmlns="http://www.w3.org/2000/svg" xmlns:xlink="http://www.w3.org/1999/xlink" x="0px" y="0px"
	 viewBox="0 0 972 360" style="enable-background:new 0 0 972 360;" xml:space="preserve">
<style type="text/css">
	.st0{fill:#050941;}
</style>
<g>
	<g>
		<g>
			<path class="st0" d="M98.2,198.5H31.3V25.2h66.8c17,0,31.1,4.1,42.4,12.3s19.8,18.8,25.6,31.9c5.8,13.1,8.7,27.3,8.7,42.4
				c0,15.2-2.9,29.4-8.7,42.6c-5.8,13.2-14.3,23.8-25.6,31.9S115.1,198.5,98.2,198.5z M98.2,188.6c14,0,26-3.3,35.9-10
				c9.9-6.7,17.5-15.8,22.9-27.4c5.4-11.5,8-24.7,8-39.4c0-14.7-2.7-27.8-8-39.4c-5.4-11.5-13-20.7-22.9-27.4
				c-9.9-6.7-21.9-10-35.9-10H41.2v153.5H98.2z"/>
			<path class="st0" d="M317,35.1H198.6v-9.9H317V35.1z M302.1,116.8H198.6v-9.9h103.5V116.8z M319.4,198.5H198.6v-9.9h120.8V198.5z
				"/>
			<path class="st0" d="M479.1,198.5H468L350.4,40v158.4h-9.9V25.2h11.1l117.6,158.4V25.2h9.9V198.5z"/>
			<path class="st0" d="M579.3,198.5h-9.9V35.1h-69.3v-9.9h148.5v9.9h-69.3V198.5z"/>
			<path class="st0" d="M793.3,198.5h-10.6L713.6,37.8l-69.1,160.6h-10.9l74.5-173.3h10.6L793.3,198.5z"/>
			<path class="st0" d="M940.7,198.5H814.4V25.2h9.9v163.4h116.3V198.5z"/>
		</g>
		<g>
			<path class="st0" d="M31.3,239.9h17.4l14.7,20.7c5.5,7.6,16.9,24.2,16.9,24.2s11.5-16.4,16.9-24.1l14.7-20.9h17.4v93.3h-20.2
				v-59.1c0,0-3.6,5.9-8.5,13l-20.3,29L59.8,287c-4.8-6.8-8.4-12.8-8.4-12.8v59.1H31.3V239.9z"/>
			<path class="st0" d="M177,239.9h19.9l40.6,93.3h-20.5l-6.3-14.8h-47.4l-6.3,14.8h-20.6L177,239.9z M204.4,302.7L193.6,276
				c-2.9-7.1-6.5-16.4-6.6-16.7c-0.1,0.3-3.7,9.7-6.6,16.7l-10.8,26.7H204.4z"/>
			<path class="st0" d="M244.6,239.9h40c27.5,0,41.9,16.1,41.9,36.2c0,12-6.2,23.5-17.7,29.7l19.4,27.5h-23.2l-14.4-21.9
				c-2.7,0.4-5.2,0.7-7.9,0.7h-18v21.2h-20.2V239.9z M285.3,294.8c11.8,0,20-8.5,20-18.7c0-10.7-8.2-19-19.9-19h-20.6v37.7H285.3z"
				/>
			<path class="st0" d="M339,239.9h20.2v51.9c0.6-1,5.2-7.9,8.5-12.2l29.7-39.6h23.5l-32.6,42.6l36.6,50.7h-23.6l-25.4-35.9
				l-16.7,20.5v15.4H339V239.9z"/>
			<path class="st0" d="M431.9,239.9h73v17.3H452v19h50.1v17.1H452v22.6h54.9v17.3h-75.1V239.9z"/>
			<path class="st0" d="M542.5,257.2h-31.7v-17.3h83.5v17.3h-31.7v76.1h-20.2V257.2z"/>
			<path class="st0" d="M602.2,239.9h20.2v93.3h-20.2V239.9z"/>
			<path class="st0" d="M638.8,239.9h19.3l32.1,44.4c5.2,7.1,11.1,17.1,11.1,17.1v-61.5h20.2v93.3h-19.4l-31.1-42.6
				c-6.2-8.4-12-18.3-12-18.3v60.9h-20.2V239.9z"/>
			<path class="st0" d="M733.6,286.6c0-26.7,20.5-48.1,49.3-48.1c13.1,0,24.6,4.6,33.1,12l-12.5,13.7c-6.5-5.8-13.1-7.3-20.2-7.3
				c-16.3,0-28.7,13.3-28.7,29.8c0,16.7,12.1,30,28.7,30c8.9,0,16.4-4,21.5-9.4v-13.7h-15.8v-14.7h34.3v36.3
				c-8.2,12.2-23.3,19.7-40.2,19.7C754.2,334.8,733.6,313.3,733.6,286.6z"/>
			<path class="st0" d="M827.1,327.2c0-2,1.6-3.5,3.5-3.5s3.5,1.6,3.5,3.5c0,1.9-1.6,3.5-3.5,3.5
				C828.6,330.7,827.1,329.1,827.1,327.2z"/>
			<path class="st0" d="M836.7,313.7c0-9.3,7.3-16.9,17.3-16.9c4.3,0,8.1,1.4,11,3.8l-3.4,3.9c-2.2-1.7-4.7-2.5-7.2-2.5
				c-6.8,0-11.5,5.3-11.5,11.5c0,6.3,4.8,11.6,11.2,11.6c3.2,0,6.1-1.2,8.3-3.2l3.6,4c-3,2.8-7.2,4.5-11.9,4.5
				C844,330.7,836.7,323.2,836.7,313.7z"/>
			<path class="st0" d="M866.8,313.8c0-9.4,7.3-16.9,17.3-16.9c9.9,0,17.3,7.5,17.3,16.9c0,9.4-7.3,16.9-17.3,16.9
				C874.1,330.7,866.8,323.2,866.8,313.8z M895.2,313.8c0-6.3-4.8-11.6-11.1-11.6c-6.4,0-11.2,5.3-11.2,11.6
				c0,6.3,4.8,11.6,11.2,11.6C890.4,325.4,895.2,320.1,895.2,313.8z"/>
			<path class="st0" d="M906.5,297.4h5.1l4.6,6.4c2.3,3.2,7.4,10.5,7.4,10.5s5.1-7.2,7.4-10.5l4.6-6.4h5.1v32.8h-5.9v-22.8
				c0,0-1,1.8-3.1,4.9l-8,11.5l-8.1-11.6c-2-2.9-3.1-4.8-3.1-4.8v22.8h-5.9V297.4z"/>
		</g>
	</g>
</g>
</svg>
